<?xml version="1.0" encoding="iso-8859-1"?>
<!-- Generator: Adobe Illustrator 19.0.0, SVG Export Plug-In . SVG Version: 6.00 Build 0)  -->
<svg version="1.1" id="Layer_1" xmlns="http://www.w3.org/2000/svg" xmlns:xlink="http://www.w3.org/1999/xlink" x="0px" y="0px"
	 viewBox="0 0 461 461" style="enable-background:new 0 0 461 461;" xml:space="preserve">
<g id="XMLID_1382_">
	<path id="XMLID_1167_" style="fill:#3E3D42;" d="M388.698,29.491H72.302c-8.284,0-15,6.716-15,15V446c0,8.284,6.716,15,15,15
		h316.396c8.284,0,15-6.716,15-15V44.491C403.698,36.207,396.982,29.491,388.698,29.491z"/>
	<path id="XMLID_1095_" style="fill:#2D2D30;" d="M388.698,29.491H229.415V461h159.283c8.284,0,15-6.716,15-15V44.491
		C403.698,36.207,396.982,29.491,388.698,29.491z"/>
	<rect id="XMLID_1096_" x="100.915" y="60.079" style="fill:#FFFFFF;" width="264" height="370.25"/>
	<rect id="XMLID_1184_" x="229.29" y="60.079" style="fill:#E0E0E2;" width="135.624" height="370.25"/>
	<path id="XMLID_1097_" style="fill:#898890;" d="M159.965,63.683c0,5.582,4.525,10.107,10.108,10.107h118.685
		c5.582,0,10.108-4.525,10.108-10.107V10.108C298.865,4.525,294.34,0,288.757,0H170.073c-5.582,0-10.108,4.525-10.108,10.108V63.683
		z"/>
	<path id="XMLID_1098_" style="fill:#787680;" d="M288.757,0H229.29v73.79h59.467c5.582,0,10.108-4.525,10.108-10.107V10.108
		C298.865,4.525,294.34,0,288.757,0z"/>
</g>
<g>
</g>
<g>
</g>
<g>
</g>
<g>
</g>
<g>
</g>
<g>
</g>
<g>
</g>
<g>
</g>
<g>
</g>
<g>
</g>
<g>
</g>
<g>
</g>
<g>
</g>
<g>
</g>
<g>
</g>
</svg>
